<svg xmlns="http://www.w3.org/2000/svg" viewBox="0 0 18 18">
     <g id="main-navigation-states" transform="translate(-63.000000, -63.000000)">
        <g id="Group-7" transform="translate(48.000000, 48.000000)" fill="#FFFFFF">
            <g id="navigation/left-bar">
                <g id="icons" transform="translate(8.000000, 8.000000)">
                    <g id="top">
                        <g id="Group-2">
                            <path d="M16,7 L16,7 C11.0499893,7 7,11.1057666 7,16.124262 C7,20.3677379 9.89601744,23.9581219 13.7831031,24.9659717 C14.4711791,25.1443235 15.1375062,24.5980265 15.1375062,23.8779176 L15.1375062,20.4414567 C15.1375062,19.6270915 14.1662679,19.2193685 13.5986638,19.7954989 L13.5848042,19.8093346 C13.280959,20.1178292 12.7913952,20.1969525 12.4410671,19.9440172 C11.9960672,19.622984 11.9583264,18.9854574 12.328058,18.6108105 L12.3794451,18.5587102 C12.9470492,17.9830121 12.5449075,16.9987264 11.7419034,16.9987264 L9.65336776,16.9987264 C9.22329361,16.9987264 8.82221801,16.7036352 8.75100097,16.2736452 C8.66038048,15.7277806 9.07830084,15.250014 9.60091449,15.250014 L11.7421166,15.250014 C12.5451207,15.2502301 12.9472624,14.2659444 12.3794451,13.6902464 L10.9024379,12.1927398 C10.5983795,11.8844614 10.5205525,11.3883191 10.7700253,11.033345 C11.0868772,10.5823851 11.7154635,10.5441206 12.0849819,10.9187674 L13.5990902,12.4538901 C14.1669075,13.0295881 15.1377194,12.621865 15.1377194,11.8077161 L15.1377194,11.7467522 C15.1377194,11.2168852 15.6087327,10.7931645 16.1473382,10.8850427 C16.5714421,10.9572482 16.8622805,11.3638903 16.8622805,11.7999334 L16.8622805,11.8077161 C16.8622805,12.621865 17.8330924,13.0295881 18.401123,12.4538901 L19.8781302,10.9565996 C20.1821886,10.6483213 20.6715392,10.5694141 21.0216541,10.8223494 C21.466654,11.1435988 21.5041816,11.7809093 21.1346632,12.1555561 L19.6205548,13.6904626 C19.0527376,14.2661605 19.4548793,15.2504463 20.2578834,15.2504463 L20.0122486,15.2504463 C20.437845,15.2504463 20.8359355,15.5381872 20.9122699,15.9625564 C21.0116325,16.5138257 20.5911535,16.9989425 20.0644886,16.9989425 L20.2578834,16.9989425 C19.4548793,16.9989425 19.0527376,17.9832283 19.6205548,18.5589264 L21.2732593,20.2345685 C21.5773176,20.5428469 21.6551446,21.0389892 21.4056718,21.3939633 C21.0888199,21.8449232 20.4602336,21.8831877 20.0907152,21.5085409 L18.4009097,19.7952826 C17.8330924,19.2195847 16.8622805,19.6273077 16.8622805,20.4414567 L16.8622805,23.8779176 C16.8622805,24.5980265 17.5286076,25.1443235 18.2166836,24.9659717 C22.1037693,23.9585542 25,20.3683865 25,16.1249106 C25,11.1064152 20.9500106,7.00021618 16,7 L16,7 L16,7 Z M16.8550309,8.86891072 C16.8550309,9.34775829 16.4722926,9.73580857 16,9.73580857 C15.5277074,9.73580857 15.144969,9.34775829 15.144969,8.86891072 C15.144969,8.39006315 15.5277074,8.00201286 16,8.00201286 C16.4722926,8.00201286 16.8550309,8.39027933 16.8550309,8.86891072 L16.8550309,8.86891072 L16.8550309,8.86891072 Z M23.91426,16.1897659 C23.91426,16.6686134 23.5315217,17.0566637 23.059229,17.0566637 C22.5869364,17.0566637 22.2041982,16.6683972 22.2041982,16.1897659 C22.2041982,15.7109182 22.5869364,15.322868 23.059229,15.322868 C23.5315217,15.322868 23.91426,15.7109182 23.91426,16.1897659 L23.91426,16.1897659 L23.91426,16.1897659 Z M11.8252742,21.0947647 C11.8252742,21.5733961 11.4423227,21.9616626 10.9700301,21.9616626 C10.4979507,21.9614463 10.1149992,21.5733961 10.1149992,21.0945485 C10.1149992,20.6159171 10.4979507,20.2276506 10.9702433,20.2276506 C11.4423227,20.2278668 11.8252742,20.6159171 11.8252742,21.0947647 L11.8252742,21.0947647 L11.8252742,21.0947647 Z" id="bmr-nav-icon"></path>
                        </g>
                    </g>
                </g>
            </g>
        </g>
    </g>
</svg>
